<svg width="576" height="119" viewBox="0 0 576 119" fill="none" xmlns="http://www.w3.org/2000/svg">
<rect x="288" y="10" width="269" height="99" fill="white"/>
<path d="M63.4089 73.137L52.6991 41.3494L41.1917 73.137H63.4089Z" fill="white"/>
<path fill-rule="evenodd" clip-rule="evenodd" d="M288 0H0V119H288V98.5957C284.316 99.9855 280.189 100.709 275.793 100.709C262.918 100.709 255.398 96.3795 247.195 86.5812C241.271 79.5173 239.106 70.0607 239.106 61.06C239.106 50.578 242.98 41.3494 249.702 33.26C256.31 25.3986 264.285 21.183 274.653 21.183C280.029 21.183 284.06 22.0114 288 23.8077V0ZM44.4958 96.1516V99H20.2279V96.1516H29.4565L56.6868 21.183H60.5605L86.6514 96.1516H95.7662V99H59.6491V96.1516H71.4982L64.5482 75.9853H39.9385L32.8745 96.1516H44.4958ZM162.986 73.3648L161.847 99H98.6136V96.1516H109.893V25.7404H98.6136V22.892H136.326V25.7404H124.477V96.1516H139.402C153.872 96.1516 158.999 86.4673 159.454 73.3648H162.986ZM214.497 96.1516V99H175.987V96.1516H187.95V25.7404C171.886 24.9429 166.986 32.6904 164.936 47.2739H161.29L162.543 22.892H227.827L229.081 47.2739H225.549C223.498 32.6904 218.599 24.9429 202.534 25.7404V96.1516H214.497Z" fill="white"/>
<path d="M288 28.0703C284.801 25.5793 280.828 24.0314 276.021 24.0314C255.759 24.0314 255.807 41.8405 255.85 58.0419C255.852 58.7861 255.854 59.5269 255.854 60.2624C255.854 61.5208 255.839 62.8319 255.823 64.178C255.653 78.919 255.434 97.8607 274.539 97.8607C283.527 97.8607 286.827 94.008 288 88.5307V74.1624H277.046V71.314H288V28.0703Z" fill="white"/>
<path d="M358.814 73.137L348.104 41.3494L336.597 73.137H358.814Z" fill="#201D1E"/>
<path d="M432.301 25.7404H422.388V56.9583H431.731C441.985 56.9583 446.201 52.0592 446.201 41.8051C446.201 29.0445 442.441 25.7404 432.301 25.7404Z" fill="#201D1E"/>
<path d="M528.311 30.9814C523.639 26.424 515.55 25.7404 502.448 25.7404V96.1516C503.249 96.1516 504.037 96.1544 504.81 96.1572C518 96.204 527.101 96.2364 531.729 82.1378C534.235 74.5042 534.577 65.3895 534.577 58.0977C534.577 43.5141 531.729 34.2855 528.311 30.9814Z" fill="#201D1E"/>
<path fill-rule="evenodd" clip-rule="evenodd" d="M576 0H288V23.8077C289.905 24.6762 291.789 25.7709 293.794 27.1076L298.352 22.3224H300.858V44.3116H297.554C296.096 38.1333 292.989 31.955 288 28.0703V71.314H312.707V74.1624H304.732C304.566 86.3596 297.874 94.8708 288 98.5957V119H576V0ZM339.901 96.1516V99H315.633V96.1516H324.862L352.092 21.183H355.966L382.057 96.1516H391.171V99H355.054V96.1516H366.903L359.953 75.9853H335.344L328.28 96.1516H339.901ZM428.655 59.8067H422.388V96.1516H433.668V99H396.525V96.1516H407.805V25.7404H396.525V22.892H434.693C447.112 22.892 461.923 24.3732 461.923 40.21C461.923 53.0846 448.365 57.528 437.769 58.6673V58.8952C455.543 61.6296 459.531 71.2001 459.531 89.7713C459.531 93.759 459.873 98.3164 470.81 96.2656V99C467.62 99.7975 464.43 100.367 461.126 100.367C449.619 100.367 443.58 94.5566 443.58 82.9353C443.58 73.4788 441.985 66.4149 439.023 63.9083C435.833 61.1739 432.187 59.8067 428.655 59.8067ZM487.864 25.7404H476.698V22.892H508.03C520.563 22.892 526.715 24.3732 532.64 28.0191C544.489 35.3109 550.186 47.2739 550.186 60.946C550.186 74.1624 544.033 87.8345 532.07 94.4426C523.787 99.0201 514.462 99.0103 505.39 99.0009C504.978 99.0004 504.567 99 504.157 99H476.698V96.1516H487.864V25.7404Z" fill="#201D1E"/>
<path d="M288 88.5307C288.699 85.2659 288.643 81.424 288.586 77.4767C288.569 76.3767 288.553 75.2685 288.553 74.1624H288V88.5307Z" fill="#201D1E"/>
</svg>
